<svg width="929" height="917" viewBox="0 0 929 917" fill="none" xmlns="http://www.w3.org/2000/svg">
<g opacity="0.85">
<rect width="929" height="917" fill="white"/>
<path d="M256.325 170.219C282.361 154.167 310.699 142.191 340.355 134.706L521.724 88.9329C605.357 67.8256 689.478 121.585 705.451 206.349V206.349C708.253 221.218 708.785 236.425 707.027 251.453L688.015 414.057C680.468 478.595 704.593 542.799 752.771 586.399L793.132 622.924C847.411 672.043 855.232 754.466 811.161 812.919V812.919C787.033 844.92 750.459 865.181 710.532 868.664L369.211 898.442C246.779 909.124 134.82 829.009 105.419 709.68V709.68L59.9983 545.337C24.4509 416.72 78.1291 280.083 191.716 210.053L256.325 170.219Z" fill="#D8A5D0"/>
<g clip-path="url(#clip0_202_18)">
<path d="M856 638.695H344V489.481C344 458.686 358.709 436.798 386.537 426.186C408.124 417.954 434.687 417.195 460.376 416.462C475.153 416.041 489.11 415.643 501.051 413.868C519.975 411.055 537.642 397.91 558.098 382.689C590.846 358.323 631.601 328 696.493 328C759.369 328 797.265 357.166 817.983 381.634C841.788 409.746 856 447.77 856 483.347V638.695Z" fill="#FAD59C"/>
<path d="M597.103 589.403H465.901V490.28H597.103V589.403Z" fill="#F7F7F8"/>
<path d="M734.099 589.403H602.897V490.28H734.099V589.403Z" fill="#F7E6E6"/>
<path d="M412.129 622.488H378.738V675.509H412.129V622.488Z" fill="#785745"/>
<path d="M821.262 622.488H787.871V675.509H821.262V622.488Z" fill="#63412E"/>
<path d="M787.871 572.707H600H378.737V639.186H787.871C787.871 639.186 787.871 589.403 787.871 572.707Z" fill="#ACB390"/>
<path d="M448.698 572.707C448.698 494.552 388.486 473.983 362.547 473.983H345.473C344.498 479.007 344 484.338 344 489.972V639.186H448.698V572.707Z" fill="#CBBC86"/>
<path d="M751.302 572.707C751.302 494.552 811.514 473.983 837.453 473.983H854.528C855.503 479.006 856.001 484.339 856.001 489.972V639.185H751.302V572.707Z" fill="#CBBC86"/>
</g>
</g>
<defs>
<clipPath id="clip0_202_18">
<rect width="512" height="512" fill="white" transform="translate(344 246)"/>
</clipPath>
</defs>
</svg>
